<svg xmlns="http://www.w3.org/2000/svg" version="1.1" xmlns:xlink="http://www.w3.org/1999/xlink" xmlns:svgjs="http://svgjs.dev/svgjs" width="1000" height="1000" viewBox="0 0 1000 1000"><rect width="1000" height="1000" fill="#000000"></rect><g transform="matrix(0.7,0,0,0.7,149.57609072928875,255.62601342336302)"><svg viewBox="0 0 396 277" data-background-color="#ffffff" preserveAspectRatio="xMidYMid meet" height="699" width="1000" xmlns="http://www.w3.org/2000/svg" xmlns:xlink="http://www.w3.org/1999/xlink"><g id="tight-bounds" transform="matrix(1,0,0,1,0.23981153028807967,-0.1562552999623108)"><svg viewBox="0 0 395.52 277.3125105999246" height="277.3125105999246" width="395.52"><g><svg viewBox="0 0 395.52 277.3125105999246" height="277.3125105999246" width="395.52"><g transform="matrix(1,0,0,1,0,179.8211135514435)"><svg viewBox="0 0 395.52 97.49139704848115" height="97.49139704848115" width="395.52"><g id="textblocktransform"><svg viewBox="0 0 395.52 97.49139704848115" height="97.49139704848115" width="395.52" id="textblock"><g><svg viewBox="0 0 395.52 73.13579895842545" height="73.13579895842545" width="395.52"><g transform="matrix(1,0,0,1,0,0)"><svg width="395.52" viewBox="1.3642036158252475 -30.287428639403043 220.35158638417477 40.745337654842615" height="73.13579895842545" data-palette-color="#010c80"><path d="M12.411-22.993v0c2.889-0.468 5.474-0.33 7.756 0.414 2.288 0.743 4.334 2.053 6.138 3.929v0l-2.96 3.924c-1.542-1.682-3.15-2.812-4.825-3.392-1.673-0.573-3.566-0.688-5.679-0.346v0c-1.553 0.252-2.799 0.67-3.737 1.255-0.939 0.584-1.588 1.264-1.949 2.038-0.354 0.773-0.46 1.598-0.319 2.472v0c0.163 1.007 0.654 1.826 1.472 2.457 0.819 0.637 2.22 1.011 4.204 1.122v0l6.762 0.403c3.223 0.173 5.595 0.853 7.117 2.037 1.529 1.184 2.468 2.849 2.816 4.994v0c0.321 1.981 0.064 3.789-0.773 5.424-0.836 1.635-2.139 2.994-3.908 4.078-1.776 1.085-3.944 1.835-6.504 2.249v0c-2.277 0.369-4.371 0.411-6.28 0.127-1.911-0.291-3.63-0.83-5.155-1.617-1.525-0.786-2.831-1.756-3.916-2.911v0l3.019-4.186c0.861 1.022 1.884 1.896 3.069 2.622 1.185 0.726 2.504 1.222 3.959 1.486 1.461 0.263 3.034 0.258 4.718-0.015v0c1.494-0.242 2.754-0.632 3.781-1.17 1.035-0.532 1.779-1.193 2.232-1.983 0.453-0.789 0.6-1.671 0.443-2.644v0c-0.153-0.941-0.602-1.716-1.35-2.325-0.748-0.615-2.016-0.977-3.802-1.085v0l-7.319-0.465c-2.01-0.107-3.712-0.445-5.108-1.016-1.39-0.578-2.486-1.377-3.286-2.395-0.8-1.018-1.313-2.225-1.539-3.621v0c-0.294-1.816-0.064-3.542 0.691-5.177 0.747-1.641 1.99-3.058 3.728-4.251 1.737-1.2 3.905-2.011 6.504-2.432zM61.556 4.065l-24.12 2.696-3.616-32.348 23.434-2.62 0.505 4.512-18.187 2.033 1.041 9.312 14.211-1.589 0.494 4.413-14.212 1.588 1.073 9.601 18.873-2.11zM89.304-7.747l5.117 1.395c-0.548 2.007-1.439 3.73-2.674 5.168-1.235 1.432-2.721 2.544-4.46 3.336-1.732 0.785-3.663 1.238-5.793 1.358v0c-3.122 0.176-5.869-0.344-8.24-1.56-2.372-1.215-4.254-3.036-5.646-5.461-1.385-2.426-2.175-5.376-2.371-8.851v0c-0.196-3.481 0.258-6.505 1.362-9.071 1.111-2.566 2.777-4.587 4.998-6.06 2.221-1.474 4.875-2.298 7.964-2.471v0c2.13-0.12 4.074 0.068 5.83 0.563 1.757 0.489 3.274 1.291 4.553 2.408 1.284 1.11 2.306 2.534 3.065 4.275v0l-4.857 2.496c-0.761-1.9-1.793-3.268-3.096-4.102-1.295-0.829-2.945-1.186-4.948-1.074v0c-2.003 0.113-3.731 0.687-5.181 1.724-1.457 1.037-2.555 2.481-3.292 4.332-0.737 1.851-1.033 4.074-0.887 6.67v0c0.144 2.556 0.663 4.724 1.558 6.503 0.888 1.78 2.098 3.104 3.629 3.972 1.531 0.869 3.329 1.245 5.392 1.129v0c2.003-0.113 3.708-0.729 5.114-1.85 1.4-1.114 2.354-2.723 2.863-4.829zM100.909-30.251l13.27-0.036c3.487-0.01 6.259 0.856 8.317 2.597 2.058 1.734 3.091 4.082 3.099 7.041v0c0.008 3.053-1.012 5.413-3.06 7.079-2.049 1.666-4.816 2.503-8.303 2.513v0l-0.49 0.301-7.55 0.021 0.036 13.02-5.23 0.014zM106.18-15.125l7.64-0.021c2.14-0.006 3.725-0.447 4.757-1.323 1.038-0.87 1.554-2.208 1.549-4.015v0c-0.005-1.78-0.529-3.112-1.571-3.995-1.036-0.884-2.624-1.323-4.764-1.317v0l-7.64 0.021zM112.399-11.982l4.534-2.083 10.645 16.291-6.06 0.017zM157.722 3.829l-24.24-1.205 1.616-32.51 23.551 1.171-0.226 4.534-18.277-0.908-0.465 9.358 14.282 0.71-0.22 4.435-14.283-0.71-0.479 9.648 18.966 0.943zM164.149-28.149l27.422 2.856-0.47 4.515-11.09-1.155-2.902 27.86-5.251-0.547 2.901-27.86-11.08-1.154zM209.845-22.984v0c2.892 0.448 5.308 1.379 7.249 2.792 1.946 1.415 3.487 3.292 4.622 5.634v0l-4.029 2.817c-0.947-2.076-2.127-3.648-3.539-4.718-1.414-1.062-3.179-1.757-5.294-2.084v0c-1.555-0.241-2.869-0.228-3.942 0.037-1.073 0.266-1.901 0.711-2.484 1.335-0.576 0.626-0.932 1.377-1.067 2.254v0c-0.156 1.008 0.057 1.938 0.64 2.79 0.582 0.859 1.799 1.648 3.651 2.367v0l6.306 2.474c3.011 1.161 5.057 2.541 6.139 4.138 1.088 1.599 1.466 3.472 1.133 5.62v0c-0.307 1.983-1.111 3.623-2.411 4.919-1.3 1.296-2.959 2.186-4.977 2.67-2.024 0.483-4.318 0.525-6.881 0.128v0c-2.279-0.353-4.284-0.96-6.012-1.821-1.728-0.868-3.195-1.911-4.403-3.131-1.208-1.219-2.149-2.546-2.824-3.979v0l4.166-3.049c0.503 1.238 1.206 2.386 2.107 3.444 0.902 1.057 2.004 1.936 3.306 2.637 1.308 0.702 2.805 1.183 4.492 1.444v0c1.496 0.232 2.815 0.25 3.958 0.056 1.149-0.186 2.06-0.585 2.735-1.195 0.675-0.611 1.088-1.403 1.238-2.379v0c0.146-0.942-0.042-1.818-0.564-2.627-0.521-0.816-1.615-1.552-3.281-2.208v0l-6.816-2.705c-1.878-0.723-3.393-1.571-4.544-2.545-1.144-0.98-1.938-2.078-2.384-3.294-0.446-1.216-0.561-2.522-0.344-3.919v0c0.282-1.818 1.034-3.388 2.257-4.71 1.218-1.329 2.838-2.293 4.86-2.89 2.023-0.604 4.336-0.705 6.937-0.302z" opacity="1" transform="matrix(1,0,0,1,0,0)" fill="#ffffff" class="undefined-text-0" data-fill-palette-color="primary" id="text-0"></path></svg></g></svg></g><g transform="matrix(1,0,0,1,118.31980799999998,79.23862735173695)"><svg viewBox="0 0 158.88038400000002 18.25276969674419" height="18.25276969674419" width="158.88038400000002"><g transform="matrix(1,0,0,1,0,0)"><svg width="158.88038400000002" viewBox="2.03 -40.6 472.36 54.27" height="18.25276969674419" data-palette-color="#0080ff"><path d="M14.65-24.73L14.65-24.73Q17.7-24.73 20.73-23.54L20.73-23.54 20.73-36.06 16.99-36.82 16.99-38.79 24.68-40.6 24.68-3.91Q24.68-2.81 25.92-2.81 27.15-2.81 29-3.56L29-3.56 29.52-1.27Q26.03 0.56 24.29 0.56L24.29 0.56Q21.78 0.56 21-1.07L21-1.07Q20.73-1.66 20.73-2.47L20.73-2.47Q18.9-0.85 16.82-0.15 14.75 0.56 12.51 0.56 10.28 0.56 8.2-0.29 6.13-1.15 4.74-2.73L4.74-2.73Q2.03-5.83 2.03-11.5L2.03-11.5Q2.03-16.92 5.22-20.61L5.22-20.61Q8.76-24.73 14.65-24.73ZM14.65-2.86L14.65-2.86Q17.11-2.86 20.73-5.18L20.73-5.18 20.73-19.04Q18.63-21.85 14.04-21.85L14.04-21.85Q10.5-21.85 8.3-18.99L8.3-18.99Q6.25-16.28 6.25-12.01L6.25-12.01Q6.25-8.13 8.2-5.64L8.2-5.64Q10.35-2.86 14.65-2.86ZM31.66-11.87L31.66-11.87Q31.66-14.67 32.63-17.09 33.59-19.51 35.25-21.19L35.25-21.19Q38.67-24.73 43.67-24.73L43.67-24.73Q49.48-24.73 52.76-21.29L52.76-21.29Q55.86-17.99 55.86-12.67L55.86-12.67Q55.86-6.74 52.34-3.03L52.34-3.03Q48.92 0.56 43.89 0.56L43.89 0.56Q38.16 0.56 34.81-2.98L34.81-2.98Q31.66-6.3 31.66-11.87ZM37.91-19.15Q36.94-17.9 36.44-16.21 35.94-14.53 35.94-12.56 35.94-10.6 36.39-8.73 36.84-6.86 37.79-5.42L37.79-5.42Q39.89-2.29 43.85-2.29L43.85-2.29Q47.56-2.29 49.61-4.74L49.61-4.74Q51.63-7.13 51.63-11.21L51.63-11.21Q51.63-18.43 47.51-20.92L47.51-20.92Q45.97-21.85 43.87-21.85 41.77-21.85 40.33-21.13 38.89-20.41 37.91-19.15ZM74.75-21.56L74.75-21.56Q71.02-21.56 67.26-18.97L67.26-18.97 67.26-2.59 70.36-2.03 70.36 0 60.1 0 60.1-2.03 63.28-2.59 63.28-20.36 60.1-20.92 60.1-22.95 66.84-24.73 66.84-21.56Q71.77-24.73 76-24.73L76-24.73Q81.07-24.73 82.61-20.51L82.61-20.51Q83.12-19.09 83.12-17.19L83.12-17.19 83.12-2.59 86.23-2.03 86.23 0 76 0 76-2.03 79.15-2.59 79.15-16.72Q79.15-21.56 74.75-21.56ZM95.72-21.29L95.72-7.47Q95.72-2.59 99.68-2.59L99.68-2.59Q101.75-2.59 103.7-4.3L103.7-4.3 105.02-2.69Q102.95-0.98 101.19-0.21 99.43 0.56 98.09 0.56 96.75 0.56 95.49-0.02 94.23-0.61 93.4-1.71L93.4-1.71Q91.76-3.83 91.76-7.74L91.76-7.74 91.76-21.29 88.66-21.29 88.66-23.41 91.76-24.15 91.76-27.42 94.65-30.3 95.72-30.3 95.72-24.15 103.78-24.15 103.78-21.29 95.72-21.29ZM129.65-40.6L129.65-2.59 132.75-2.03 132.75 0 122.5 0 122.5-2.03 125.67-2.59 125.67-36.21 122.5-36.82 122.5-38.79 129.65-40.6ZM129.85-12.99L140.76-21.61 138.59-22.12 138.59-24.15 148.38-24.15 148.38-22.12 144.57-21.56 134.24-13.62 144.49-3.22 146.08-2.42 148.72-2.03 148.72 0 141.86 0 129.85-12.99ZM171.64-5.59L171.64-5.59 173.03-4Q169.15-0.51 165.51 0.37L165.51 0.37Q164.71 0.56 163.93 0.56L163.93 0.56Q158.55 0.56 155.19-2.83L155.19-2.83Q151.84-6.15 151.84-11.5L151.84-11.5Q151.84-16.82 154.99-20.61L154.99-20.61Q158.46-24.73 164-24.73L164-24.73Q167.83-24.73 170.47-21.97L170.47-21.97Q173.28-19.09 173.28-14.48L173.28-14.48 172.13-13.45 156.21-12.3Q156.26-7.86 159.09-5.2L159.09-5.2Q161.63-2.86 165-2.86 168.37-2.86 171.64-5.59ZM156.38-14.6L156.38-14.6 168.93-15.75Q168.76-19.8 165.81-21.31L165.81-21.31Q164.76-21.85 163.12-21.85 161.48-21.85 160.2-21.04 158.92-20.24 158.09-19.09L158.09-19.09Q156.5-16.92 156.38-14.6ZM196.66-5.59L196.66-5.59 198.05-4Q194.17-0.51 190.53 0.37L190.53 0.37Q189.73 0.56 188.95 0.56L188.95 0.56Q183.58 0.56 180.21-2.83L180.21-2.83Q176.86-6.15 176.86-11.5L176.86-11.5Q176.86-16.82 180.01-20.61L180.01-20.61Q183.48-24.73 189.02-24.73L189.02-24.73Q192.85-24.73 195.49-21.97L195.49-21.97Q198.3-19.09 198.3-14.48L198.3-14.48 197.15-13.45 181.23-12.3Q181.28-7.86 184.11-5.2L184.11-5.2Q186.65-2.86 190.02-2.86 193.39-2.86 196.66-5.59ZM181.4-14.6L181.4-14.6 193.95-15.75Q193.78-19.8 190.83-21.31L190.83-21.31Q189.78-21.85 188.14-21.85 186.51-21.85 185.22-21.04 183.94-20.24 183.11-19.09L183.11-19.09Q181.53-16.92 181.4-14.6ZM214.29 0.56L214.29 0.56Q211.14 0.56 208.33-0.63L208.33-0.63 208.33 11.08 211.43 11.65 211.43 13.67 201.18 13.67 201.18 11.65 204.35 11.08 204.35-20.53 201.18-21.12 201.18-23.1 208.33-24.73 208.33-21.51Q212.6-24.73 216.78-24.73L216.78-24.73Q221.24-24.73 224.1-21.44L224.1-21.44Q227.01-18.09 227.01-12.67L227.01-12.67Q227.01-7.28 223.78-3.54L223.78-3.54Q220.27 0.56 214.29 0.56ZM208.33-19.04L208.33-19.04 208.33-5.1Q210.43-2.29 214.99-2.29L214.99-2.29Q218.51-2.29 220.71-5.08L220.71-5.08Q222.76-7.64 222.76-11.25L222.76-11.25Q222.76-15.72 220.9-18.51L220.9-18.51Q218.9-21.56 215.46-21.56 212.02-21.56 208.33-19.04ZM254.39-24.73L254.39-2.59 257.52-2.03 257.52 0 247.27 0 247.27-2.03 250.44-2.59 250.44-20.36 247.27-20.92 247.27-22.95 254.39-24.73ZM250.3-32.19Q249.9-32.62 249.66-33.15 249.41-33.69 249.41-34.22 249.41-34.74 249.66-35.27 249.9-35.79 250.29-36.23L250.29-36.23Q251.2-37.21 251.94-37.21 252.68-37.21 253.21-36.94 253.73-36.67 254.15-36.23L254.15-36.23Q255.05-35.23 255.05-34.46 255.05-33.69 254.8-33.15 254.54-32.62 254.15-32.18L254.15-32.18Q253.22-31.23 252.45-31.23 251.68-31.23 251.2-31.49 250.71-31.76 250.3-32.19ZM266.74-21.29L266.74-7.47Q266.74-2.59 270.7-2.59L270.7-2.59Q272.78-2.59 274.73-4.3L274.73-4.3 276.05-2.69Q273.97-0.98 272.21-0.21 270.46 0.56 269.11 0.56 267.77 0.56 266.51-0.02 265.26-0.61 264.43-1.71L264.43-1.71Q262.79-3.83 262.79-7.74L262.79-7.74 262.79-21.29 259.69-21.29 259.69-23.41 262.79-24.15 262.79-27.42 265.67-30.3 266.74-30.3 266.74-24.15 274.8-24.15 274.8-21.29 266.74-21.29ZM293.94 6.03L295.21 6.03Q295.21 8.42 297.33 8.42L297.33 8.42Q298.6 8.42 299.58 6.93L299.58 6.93Q299.82 6.52 299.97 6.1L299.97 6.1 302.7 0.05Q294.55-19.12 293.6-21.56L293.6-21.56 290.25-22.12 290.25-24.15 301.14-24.15 301.14-22.12 298.11-21.56 304.9-5.1 312.08-21.68 308.81-22.12 308.81-24.15 318.4-24.15 318.4-22.12 315.06-21.56 302.8 6.35Q302.26 8.11 301.11 9.38L301.11 9.38Q298.92 11.84 297.33 11.84L297.33 11.84Q294.99 11.84 292.62 10.79L292.62 10.79 293.94 6.03ZM319.62-11.87L319.62-11.87Q319.62-14.67 320.58-17.09 321.55-19.51 323.21-21.19L323.21-21.19Q326.63-24.73 331.63-24.73L331.63-24.73Q337.44-24.73 340.71-21.29L340.71-21.29Q343.81-17.99 343.81-12.67L343.81-12.67Q343.81-6.74 340.3-3.03L340.3-3.03Q336.88 0.56 331.85 0.56L331.85 0.56Q326.11 0.56 322.77-2.98L322.77-2.98Q319.62-6.3 319.62-11.87ZM325.87-19.15Q324.89-17.9 324.39-16.21 323.89-14.53 323.89-12.56 323.89-10.6 324.34-8.73 324.79-6.86 325.75-5.42L325.75-5.42Q327.85-2.29 331.8-2.29L331.8-2.29Q335.51-2.29 337.56-4.74L337.56-4.74Q339.59-7.13 339.59-11.21L339.59-11.21Q339.59-18.43 335.46-20.92L335.46-20.92Q333.92-21.85 331.83-21.85 329.73-21.85 328.29-21.13 326.84-20.41 325.87-19.15ZM373.33-3.32L373.84-1.03Q371.18 0.56 369.59 0.56L369.59 0.56Q368.08 0.56 367.35-0.05L367.35-0.05Q366.03-1.07 366.03-2.47L366.03-2.47 366.03-2.81Q363.93-1.03 361.68-0.23 359.44 0.56 357.75 0.56L357.75 0.56Q354.33 0.56 352.39-1.31 350.45-3.17 350.45-6.96L350.45-6.96 350.45-20.36 347.55-20.85 347.55-23 354.41-24.73 354.41-6.96Q354.41-4.76 355.92-3.56L355.92-3.56Q357.16-2.59 358.85-2.59L358.85-2.59Q361.61-2.59 364.03-4.05L364.03-4.05Q365.12-4.69 366.03-5.54L366.03-5.54 366.03-20.36 362.34-20.85 362.34-22.88 369.98-24.73 369.98-4.13Q369.98-2.81 371.3-2.81L371.3-2.81Q372.23-2.81 373.33-3.32L373.33-3.32ZM379.6-2.59L379.6-20.36 376.47-20.92 376.47-22.95 383.55-24.73 383.55-18.51Q389.17-24.73 392-24.73L392-24.73Q394.32-24.73 396.27-22.88L396.27-22.88 395-18.92 393.86-18.92Q393.86-20.12 392.03-20.7L392.03-20.7Q391.51-20.85 391-20.85L391-20.85Q388.41-20.85 383.55-15.65L383.55-15.65 383.55-2.59 388.39-2.03 388.39 0 376.47 0 376.47-2.03 379.6-2.59ZM399.18-7.13L400.45-7.13Q400.45-2.03 406.7-2.03L406.7-2.03Q409.06-2.03 410.48-3.08L410.48-3.08Q411.77-4.03 411.77-5.47L411.77-5.47Q411.77-6.98 411.02-7.81L411.02-7.81Q409.53-9.45 406.71-10.42 403.89-11.4 402.48-12.29 401.08-13.18 400.27-14.16L400.27-14.16Q398.88-15.82 398.88-17.74 398.88-19.65 399.6-20.87 400.32-22.09 401.5-22.95L401.5-22.95Q403.99-24.73 407.26-24.73L407.26-24.73Q411.19-24.73 414.12-23L414.12-23 413.56-18.29 412.24-18.29Q412.24-22.12 407.14-22.12L407.14-22.12Q404.91-22.12 403.77-21.25 402.62-20.39 402.62-19.09L402.62-19.09Q402.62-16.24 408.99-13.92L408.99-13.92Q414.95-11.72 415.7-8.18L415.7-8.18Q415.9-7.18 415.9-5.8 415.9-4.42 415.01-3.13 414.12-1.83 412.77-1.03L412.77-1.03Q410.16 0.56 406.74 0.56L406.74 0.56Q403.4 0.56 400.49-0.73L400.49-0.73Q399.2-1.29 398.25-2.03L398.25-2.03 399.18-7.13ZM425.27-40.6L425.27-2.59 428.4-2.03 428.4 0 418.14 0 418.14-2.03 421.32-2.59 421.32-36.21 418.14-36.82 418.14-38.79 425.27-40.6ZM451.15-5.59L451.15-5.59 452.54-4Q448.66-0.51 445.02 0.37L445.02 0.37Q444.22 0.56 443.43 0.56L443.43 0.56Q438.06 0.56 434.69-2.83L434.69-2.83Q431.35-6.15 431.35-11.5L431.35-11.5Q431.35-16.82 434.5-20.61L434.5-20.61Q437.97-24.73 443.51-24.73L443.51-24.73Q447.34-24.73 449.98-21.97L449.98-21.97Q452.78-19.09 452.78-14.48L452.78-14.48 451.64-13.45 435.72-12.3Q435.77-7.86 438.6-5.2L438.6-5.2Q441.14-2.86 444.51-2.86 447.88-2.86 451.15-5.59ZM435.89-14.6L435.89-14.6 448.44-15.75Q448.27-19.8 445.31-21.31L445.31-21.31Q444.26-21.85 442.63-21.85 440.99-21.85 439.71-21.04 438.43-20.24 437.6-19.09L437.6-19.09Q436.01-16.92 435.89-14.6ZM463.11-21.29L463.11-2.69 468.41-2.03 468.41 0 455.78 0 455.78-2.03 459.15-2.59 459.15-21.39 455.78-21.39 455.78-23.41 459.15-24.15 459.15-29.32Q459.15-33.15 461.52-36.62L461.52-36.62Q464.23-40.6 468.63-40.6L468.63-40.6Q471.43-40.6 473.22-39.48L473.22-39.48Q474-38.99 474.39-38.35L474.39-38.35 472.73-34.03 471.14-34.03Q471.14-36.47 469.43-37.35L469.43-37.35Q468.82-37.7 467.88-37.7 466.94-37.7 466.08-37.29 465.21-36.89 464.55-36.06L464.55-36.06Q463.11-34.25 463.11-31.01L463.11-31.01 463.11-24.15 470.53-24.15 470.53-21.29 463.11-21.29Z" opacity="1" transform="matrix(1,0,0,1,0,0)" fill="#ffffff" class="undefined-text-1" data-fill-palette-color="secondary" id="text-1"></path></svg></g></svg></g></svg></g></svg></g><g transform="matrix(1,0,0,1,111.40854544116502,0)"><svg viewBox="0 0 172.70290911766995 157.7410804244425" height="157.7410804244425" width="172.70290911766995"><g><svg xmlns="http://www.w3.org/2000/svg" xmlns:xlink="http://www.w3.org/1999/xlink" version="1.1" x="0" y="0" viewBox="4.672000000000004 8.646 90 82.203" enable-background="new 0 0 100 100" xml:space="preserve" height="157.7410804244425" width="172.70290911766995" class="icon-icon-0" data-fill-palette-color="accent" id="icon-0"><path fill="#ffffff" d="M32.584 8.646c-18.634 0-27.912 15.412-27.912 34.048 0 16.87 9.278 30.059 27.912 30.059 12.049 0 19.995-6.032 23.22-14.35-5.864-0.442-8.622-1.337-8.771-1.388-0.964-0.321-1.485-1.366-1.164-2.329 0.321-0.964 1.359-1.488 2.329-1.163 0.029 0.01 2.777 0.874 8.658 1.256 0.366-1.723 0.573-3.507 0.573-5.338 0-3.066 7.056 0.308 7.056-3.374C64.484 27.433 53.137 8.646 32.584 8.646M39.792 40.545c-2.626 0-4.753-2.129-4.753-4.754 0-2.626 2.127-4.755 4.753-4.755 2.627 0 4.754 2.129 4.754 4.755C44.546 38.417 42.419 40.545 39.792 40.545" data-fill-palette-color="accent"></path><path fill="#ffffff" d="M91.013 61.016h-0.074c-1.555 0-2.869 0.971-3.405 2.333-0.533-1.362-1.852-2.333-3.402-2.333h-0.073c-1.345 0-2.503 0.729-3.143 1.809-0.088-0.004-0.172-0.015-0.262-0.015-0.091 0-0.177 0.011-0.263 0.015-0.638-1.079-1.8-1.809-3.142-1.809h-0.071c-1.349 0-2.513 0.732-3.149 1.815V47.4c0-2.023-1.64-3.663-3.659-3.663h-0.075c-2.021 0-3.662 1.64-3.662 3.663v29.773c0 0.118 0.023 0.229 0.034 0.346 0.363 7.421 6.476 13.33 13.987 13.33 7.509 0 13.623-5.909 13.986-13.33 0.011-0.116 0.032-0.228 0.032-0.346V64.678C94.672 62.654 93.035 61.016 91.013 61.016" data-fill-palette-color="accent"></path></svg></g></svg></g><g></g></svg></g><defs></defs></svg><rect width="395.52" height="277.3125105999246" fill="none" stroke="none" visibility="hidden"></rect></g></svg></g></svg>